<svg xmlns="http://www.w3.org/2000/svg" xmlns:xlink="http://www.w3.org/1999/xlink" contentStyleType="text/css" data-diagram-type="SEQUENCE" height="264px" preserveAspectRatio="none" style="width:339px;height:264px;background:#FFFFFF;" version="1.1" viewBox="0 0 339 264" width="339px" zoomAndPan="magnify"><defs/><g><g><title>A</title><rect fill="#FFFFFF" height="144.7437" style="stroke:#181818;stroke-width:1;" width="10" x="92.7266" y="67.0474"/></g><g><title>B</title><rect fill="#FFFFFF" height="86.8462" style="stroke:#181818;stroke-width:1;" width="10" x="221.3955" y="95.9961"/></g><g><title>C</title><rect fill="#FFFFFF" height="28.9487" style="stroke:#181818;stroke-width:1;" width="10" x="316.8027" y="124.9448"/></g><g><title>User</title><rect fill="#000000" fill-opacity="0.00000" height="193.6924" width="8" x="22.7793" y="36.0986"/><line style="stroke:#181818;stroke-width:0.5;stroke-dasharray:5.0,5.0;" x1="26" x2="26" y1="36.0986" y2="229.791"/></g><g><title>A</title><rect fill="#000000" fill-opacity="0.00000" height="193.6924" width="8" x="93.7266" y="36.0986"/><line style="stroke:#181818;stroke-width:0.5;stroke-dasharray:5.0,5.0;" x1="97.0576" x2="97.0576" y1="36.0986" y2="229.791"/></g><g><title>B</title><rect fill="#000000" fill-opacity="0.00000" height="193.6924" width="8" x="222.3955" y="36.0986"/><line style="stroke:#181818;stroke-width:0.5;stroke-dasharray:5.0,5.0;" x1="225.7266" x2="225.7266" y1="36.0986" y2="229.791"/></g><g><title>C</title><rect fill="#000000" fill-opacity="0.00000" height="193.6924" width="8" x="317.8027" y="36.0986"/><line style="stroke:#181818;stroke-width:0.5;stroke-dasharray:5.0,5.0;" x1="321.7476" x2="321.7476" y1="36.0986" y2="229.791"/></g><g class="participant participant-head" data-participant="User"><rect fill="#E2E2F0" height="30.0986" rx="2.5" ry="2.5" style="stroke:#181818;stroke-width:0.5;" width="43.5586" x="5" y="5"/><text fill="#000000" font-family="Liberation Sans" font-size="14" lengthAdjust="spacing" textLength="29.5586" x="12" y="25.1318">User</text></g><g class="participant participant-tail" data-participant="User"><rect fill="#E2E2F0" height="30.0986" rx="2.5" ry="2.5" style="stroke:#181818;stroke-width:0.5;" width="43.5586" x="5" y="228.791"/><text fill="#000000" font-family="Liberation Sans" font-size="14" lengthAdjust="spacing" textLength="29.5586" x="12" y="248.9229">User</text></g><g class="participant participant-head" data-participant="A"><rect fill="#E2E2F0" height="30.0986" rx="2.5" ry="2.5" style="stroke:#181818;stroke-width:0.5;" width="23.3379" x="86.0576" y="5"/><text fill="#000000" font-family="Liberation Sans" font-size="14" lengthAdjust="spacing" textLength="9.3379" x="93.0576" y="25.1318">A</text></g><g class="participant participant-tail" data-participant="A"><rect fill="#E2E2F0" height="30.0986" rx="2.5" ry="2.5" style="stroke:#181818;stroke-width:0.5;" width="23.3379" x="86.0576" y="228.791"/><text fill="#000000" font-family="Liberation Sans" font-size="14" lengthAdjust="spacing" textLength="9.3379" x="93.0576" y="248.9229">A</text></g><g class="participant participant-head" data-participant="B"><rect fill="#E2E2F0" height="30.0986" rx="2.5" ry="2.5" style="stroke:#181818;stroke-width:0.5;" width="23.3379" x="214.7266" y="5"/><text fill="#000000" font-family="Liberation Sans" font-size="14" lengthAdjust="spacing" textLength="9.3379" x="221.7266" y="25.1318">B</text></g><g class="participant participant-tail" data-participant="B"><rect fill="#E2E2F0" height="30.0986" rx="2.5" ry="2.5" style="stroke:#181818;stroke-width:0.5;" width="23.3379" x="214.7266" y="228.791"/><text fill="#000000" font-family="Liberation Sans" font-size="14" lengthAdjust="spacing" textLength="9.3379" x="221.7266" y="248.9229">B</text></g><g class="participant participant-head" data-participant="C"><rect fill="#E2E2F0" height="30.0986" rx="2.5" ry="2.5" style="stroke:#181818;stroke-width:0.5;" width="24.1104" x="309.7476" y="5"/><text fill="#000000" font-family="Liberation Sans" font-size="14" lengthAdjust="spacing" textLength="10.1104" x="316.7476" y="25.1318">C</text></g><g class="participant participant-tail" data-participant="C"><rect fill="#E2E2F0" height="30.0986" rx="2.5" ry="2.5" style="stroke:#181818;stroke-width:0.5;" width="24.1104" x="309.7476" y="228.791"/><text fill="#000000" font-family="Liberation Sans" font-size="14" lengthAdjust="spacing" textLength="10.1104" x="316.7476" y="248.9229">C</text></g><g><title>A</title><rect fill="#FFFFFF" height="144.7437" style="stroke:#181818;stroke-width:1;" width="10" x="92.7266" y="67.0474"/></g><g><title>B</title><rect fill="#FFFFFF" height="86.8462" style="stroke:#181818;stroke-width:1;" width="10" x="221.3955" y="95.9961"/></g><g><title>C</title><rect fill="#FFFFFF" height="28.9487" style="stroke:#181818;stroke-width:1;" width="10" x="316.8027" y="124.9448"/></g><g class="message" data-participant-1="User" data-participant-2="A"><polygon fill="#181818" points="80.7266,63.0474,90.7266,67.0474,80.7266,71.0474,84.7266,67.0474" style="stroke:#181818;stroke-width:1;"/><line style="stroke:#181818;stroke-width:1;" x1="26.7793" x2="86.7266" y1="67.0474" y2="67.0474"/><text fill="#000000" font-family="Liberation Sans" font-size="13" lengthAdjust="spacing" textLength="46.9473" x="33.7793" y="62.2925">DoWork</text></g><g class="message" data-participant-1="A" data-participant-2="B"><polygon fill="#181818" points="209.3955,91.9961,219.3955,95.9961,209.3955,99.9961,213.3955,95.9961" style="stroke:#181818;stroke-width:1;"/><line style="stroke:#181818;stroke-width:1;" x1="102.7266" x2="215.3955" y1="95.9961" y2="95.9961"/><text fill="#000000" font-family="Liberation Sans" font-size="13" lengthAdjust="spacing" textLength="99.0107" x="109.7266" y="91.2412">&#171;createRequest&#187;</text></g><g class="message" data-participant-1="B" data-participant-2="C"><polygon fill="#181818" points="304.8027,120.9448,314.8027,124.9448,304.8027,128.9448,308.8027,124.9448" style="stroke:#181818;stroke-width:1;"/><line style="stroke:#181818;stroke-width:1;" x1="231.3955" x2="310.8027" y1="124.9448" y2="124.9448"/><text fill="#000000" font-family="Liberation Sans" font-size="13" lengthAdjust="spacing" textLength="46.9473" x="238.3955" y="120.1899">DoWork</text></g><g class="message" data-participant-1="C" data-participant-2="B"><polygon fill="#181818" points="242.3955,149.8936,232.3955,153.8936,242.3955,157.8936,238.3955,153.8936" style="stroke:#181818;stroke-width:1;"/><line style="stroke:#181818;stroke-width:1;stroke-dasharray:2.0,2.0;" x1="236.3955" x2="320.8027" y1="153.8936" y2="153.8936"/><text fill="#000000" font-family="Liberation Sans" font-size="13" lengthAdjust="spacing" textLength="61.4072" x="248.3955" y="149.1387">WorkDone</text></g><line style="stroke:#A80036;stroke-width:2;" x1="312.8027" x2="330.8027" y1="144.8936" y2="162.8936"/><line style="stroke:#A80036;stroke-width:2;" x1="312.8027" x2="330.8027" y1="162.8936" y2="144.8936"/><g class="message" data-participant-1="B" data-participant-2="A"><polygon fill="#181818" points="113.7266,178.8423,103.7266,182.8423,113.7266,186.8423,109.7266,182.8423" style="stroke:#181818;stroke-width:1;"/><line style="stroke:#181818;stroke-width:1;stroke-dasharray:2.0,2.0;" x1="107.7266" x2="225.3955" y1="182.8423" y2="182.8423"/><text fill="#000000" font-family="Liberation Sans" font-size="13" lengthAdjust="spacing" textLength="94.6689" x="119.7266" y="178.0874">RequestCreated</text></g><g class="message" data-participant-1="A" data-participant-2="User"><polygon fill="#181818" points="37.7793,207.791,27.7793,211.791,37.7793,215.791,33.7793,211.791" style="stroke:#181818;stroke-width:1;"/><line style="stroke:#181818;stroke-width:1;" x1="31.7793" x2="96.7266" y1="211.791" y2="211.791"/><text fill="#000000" font-family="Liberation Sans" font-size="13" lengthAdjust="spacing" textLength="31.0781" x="43.7793" y="207.0361">Done</text></g></g></svg>